<svg width="60" height="37" viewBox="0 0 60 37" fill="none" xmlns="http://www.w3.org/2000/svg">
<path d="M-2.16313e-06 -4.80963e-06L-2.37841e-06 9.03207C1.585 8.52742 4.765 7.44931 12.25 5.79199L-2.1632e-06 0.00286251L-2.16313e-06 -4.80963e-06ZM12.25 30.451C4.765 28.7937 1.585 27.7156 -2.81172e-06 27.2109L-3.02701e-06 36.243L12.25 30.4567L12.25 30.451ZM28.345 18.1129C28.345 16.3661 28.95 14.6909 30.0269 13.4557C31.1039 12.2205 32.5645 11.5266 34.0875 11.5266C35.6105 11.5266 37.0711 12.2205 38.1481 13.4557C39.225 14.6909 39.83 16.3661 39.83 18.1129C39.83 19.8597 39.225 21.5349 38.1481 22.7701C37.0711 24.0052 35.6105 24.6991 34.0875 24.6991C32.5645 24.6991 31.1039 24.0052 30.0269 22.7701C28.95 21.5349 28.345 19.8597 28.345 18.1129ZM35.785 31.0875C53.9075 30.3764 60 18.1129 60 18.1129C60 18.1129 53.91 5.84647 35.785 5.13824C18.985 4.47876 -2.44061e-06 11.6413 -2.44061e-06 11.6413L-2.74912e-06 24.5844C-2.74912e-06 24.5844 18.985 31.747 35.785 31.0875Z" fill="url(#paint0_linear_1118_322)"/>
<defs>
<linearGradient id="paint0_linear_1118_322" x1="60" y1="18.1215" x2="-4.31939e-07" y2="18.1215" gradientUnits="userSpaceOnUse">
<stop stop-color="#640059"/>
<stop offset="1" stop-color="#1D005C"/>
</linearGradient>
</defs>
</svg>
